<?xml version="1.0"?>
<svg xmlns="http://www.w3.org/2000/svg" viewBox="0 0 64 64" width="512" height="512"><title>flat-condominium-office-hotel-Building</title><g id="Flat"><rect x="13" y="11" width="38" height="50" style="fill:#dfd9d3"/><rect x="32" y="11" width="19" height="50" style="fill:#c7c2bc"/><rect x="13" y="57" width="12" height="4" style="fill:#6e6350"/><rect x="39" y="57" width="12" height="4" style="fill:#6e6350"/><path d="M16,61a3,3,0,1,0-1.116-5.78,2.975,2.975,0,0,0-4-2,2.992,2.992,0,1,0-5.664,1.9A2.993,2.993,0,0,0,6,61Z" style="fill:#8cc63f"/><path d="M48,61a3,3,0,1,1,1.116-5.78,2.975,2.975,0,0,1,4-2,2.992,2.992,0,1,1,5.664,1.9A2.993,2.993,0,0,1,58,61Z" style="fill:#8cc63f"/><rect x="11" y="8" width="42" height="4" style="fill:#95866d"/><rect x="25" y="51" width="7" height="10" style="fill:#56a8c6"/><rect x="32" y="51" width="7" height="10" style="fill:#80c5d4"/><rect x="18" y="34" width="4" height="8" style="fill:#56a8c6"/><rect x="22" y="34" width="4" height="8" style="fill:#80c5d4"/><rect x="38" y="34" width="4" height="8" style="fill:#56a8c6"/><rect x="42" y="34" width="4" height="8" style="fill:#80c5d4"/><rect x="18" y="17" width="4" height="8" style="fill:#56a8c6"/><rect x="22" y="17" width="4" height="8" style="fill:#80c5d4"/><rect x="38" y="17" width="4" height="8" style="fill:#56a8c6"/><rect x="42" y="17" width="4" height="8" style="fill:#80c5d4"/><rect x="13" y="42" width="38" height="4" style="fill:#95866d"/><rect x="13" y="25" width="38" height="4" style="fill:#95866d"/><path d="M59.964,54.528A3.882,3.882,0,0,0,60,54a3.992,3.992,0,0,0-7.472-1.964,3.757,3.757,0,0,0-.528-.03V13h1a1,1,0,0,0,1-1V8a1,1,0,0,0-1-1H11a1,1,0,0,0-1,1v4a1,1,0,0,0,1,1h1V52.006a3.914,3.914,0,0,0-.528.03A3.992,3.992,0,0,0,4,54a3.882,3.882,0,0,0,.036.528A3.992,3.992,0,0,0,6,62H58a3.992,3.992,0,0,0,1.964-7.472ZM20,58h4v2H19.444A3.959,3.959,0,0,0,20,58Zm6-6h5v8H26Zm7,0h5v8H33Zm7,6h4a3.959,3.959,0,0,0,.556,2H40Zm4.556-2H40V52h2V50H22v2h2v4H19.444A3.987,3.987,0,0,0,16,54a3.882,3.882,0,0,0-.528.036A4.018,4.018,0,0,0,14,52.562V47H50v5.562a4.01,4.01,0,0,0-1.472,1.474A3.882,3.882,0,0,0,48,54,3.987,3.987,0,0,0,44.556,56ZM14,26H50v2H14Zm11-2H23V18h2Zm-4,0H19V18h2Zm24,0H43V18h2Zm-4,0H39V18h2ZM39,41V35h2v6Zm4-6h2v6H43Zm3-2H38a1,1,0,0,0-1,1v7H33V30H50V41H47V34A1,1,0,0,0,46,33ZM14,30H31V41H27V34a1,1,0,0,0-1-1H18a1,1,0,0,0-1,1v7H14Zm5,11V35h2v6Zm4-6h2v6H23Zm-9,8H50v2H14ZM50,24H47V17a1,1,0,0,0-1-1H38a1,1,0,0,0-1,1v7H33V13H50ZM12,9H52v2H12Zm19,4V24H27V17a1,1,0,0,0-1-1H18a1,1,0,0,0-1,1v7H14V13ZM6,60a1.993,1.993,0,0,1-.519-3.919,1,1,0,0,0,.667-1.337,1.992,1.992,0,1,1,3.771-1.263,1,1,0,0,0,1.337.667,2,2,0,0,1,2.663,1.333,1,1,0,0,0,1.337.667A2,2,0,1,1,16,60Zm52,0H48a2,2,0,1,1,.744-3.852,1,1,0,0,0,1.337-.667,2,2,0,0,1,2.663-1.333,1,1,0,0,0,1.337-.667,1.993,1.993,0,1,1,3.771,1.263,1,1,0,0,0,.667,1.337A1.993,1.993,0,0,1,58,60Z"/><rect x="16" y="49" width="2" height="2"/><rect x="46" y="49" width="2" height="2"/><rect x="8" y="18" width="2" height="18"/><rect x="54" y="32" width="2" height="15"/><rect x="27" y="3" width="19" height="2"/><rect x="48" y="3" width="2" height="2"/></g></svg>
