<svg id="Layer_1" enable-background="new 0 0 512 512" height="512" viewBox="0 0 512 512" width="512" xmlns="http://www.w3.org/2000/svg"><g><path d="m22 26h30v426h-30z" fill="#c86d36"/><path d="m460 26h30v426h-30z" fill="#c86d36"/><path d="m498.5 504.5h-485c-3.314 0-6-2.686-6-6v-76c0-3.314 2.686-6 6-6h485c3.314 0 6 2.686 6 6v76c0 3.314-2.686 6-6 6z" fill="#d77f4a"/><path d="m498.5 416.5h-30c3.314 0 6 2.686 6 6v76c0 3.314-2.686 6-6 6h30c3.314 0 6-2.686 6-6v-76c0-3.314-2.686-6-6-6z" fill="#c86d36"/><path d="m498.5 254.281h-485c-3.314 0-6-2.686-6-6v-22c0-3.314 2.686-6 6-6h485c3.314 0 6 2.686 6 6v22c0 3.314-2.686 6-6 6z" fill="#d77f4a"/><path d="m498.5 220.281h-30c3.314 0 6 2.686 6 6v22c0 3.314-2.686 6-6 6h30c3.314 0 6-2.686 6-6v-22c0-3.313-2.686-6-6-6z" fill="#c86d36"/><path d="m498.5 41.5h-485c-3.314 0-6-2.686-6-6v-22c0-3.314 2.686-6 6-6h485c3.314 0 6 2.686 6 6v22c0 3.314-2.686 6-6 6z" fill="#d77f4a"/><path d="m498.5 7.5h-30c3.314 0 6 2.686 6 6v22c0 3.314-2.686 6-6 6h30c3.314 0 6-2.686 6-6v-22c0-3.314-2.686-6-6-6z" fill="#c86d36"/><path d="m121.308 286.5h36v130h-36z" fill="#fec165"/><path d="m121.308 313.5h36v42h-36z" fill="#f3f0f3"/><path d="m157.308 286.5h36v130h-36z" fill="#01d0fb"/><path d="m157.308 313.5h36v42h-36z" fill="#f3f0f3"/><path d="m193.308 286.5h36v130h-36z" fill="#fe646f"/><path d="m193.308 313.5h36v72.09h-36z" fill="#f3f0f3"/><path d="m229.308 286.5h36v130h-36z" fill="#7ca1b1"/><path d="m229.308 313.5h36v42h-36z" fill="#f3f0f3"/><path d="m326.43 286.5h36v130h-36z" fill="#fe646f"/><path d="m326.43 313.5h36v72.09h-36z" fill="#f3f0f3"/><path d="m362.43 286.5h36v130h-36z" fill="#00f2a6"/><path d="m362.43 313.5h36v42h-36z" fill="#f3f0f3"/><path d="m187.099 89.757h36v130h-36z" fill="#fec165"/><path d="m187.099 116.757h36v42h-36z" fill="#f3f0f3"/><path d="m113.253 89.757h36v130h-36z" fill="#fec165"/><path d="m113.253 116.757h36v42h-36z" fill="#f3f0f3"/><path d="m223.099 89.757h36v130h-36z" fill="#00f2a6"/><path d="m223.099 116.757h36v42h-36z" fill="#f3f0f3"/><path d="m259.099 89.757h36v130h-36z" fill="#fe646f"/><path d="m259.099 116.757h36v70.063h-36z" fill="#f3f0f3"/><path d="m403.07 200.352-21.09 18.418c-1.664 1.453-4.191 1.282-5.644-.382l-80.25-91.891c-1.453-1.664-1.282-4.191.382-5.644l21.09-18.418c1.664-1.453 4.191-1.282 5.644.382l80.25 91.891c1.453 1.664 1.282 4.191-.382 5.644z" fill="#01d0fb"/><path d="m320.587 126.798h36v42h-36z" fill="#f3f0f3" transform="matrix(.753 -.658 .658 .753 -13.658 259.192)"/><path d="m498.5 49c7.444 0 13.5-6.056 13.5-13.5v-22c0-7.444-6.056-13.5-13.5-13.5h-61.603c-9.931.344-9.923 14.66 0 15h60.103v19h-482v-19h386.923c9.931-.344 9.923-14.66 0-15h-388.423c-7.444 0-13.5 6.056-13.5 13.5v22c0 7.444 6.056 13.5 13.5 13.5h1v91.461c.344 9.931 14.66 9.923 15 0v-91.461h15v163.781h-15v-38.32c-.344-9.931-14.66-9.923-15 0v38.32h-1c-7.444 0-13.5 6.056-13.5 13.5v22c0 7.444 6.056 13.5 13.5 13.5h1v147.219h-1c-7.444 0-13.5 6.056-13.5 13.5v76c0 7.444 6.056 13.5 13.5 13.5h108.628c9.931-.344 9.923-14.66 0-15h-107.128v-73h482v73h-339.692c-9.931.344-9.923 14.66 0 15h341.192c7.444 0 13.5-6.056 13.5-13.5v-76c0-7.444-6.056-13.5-13.5-13.5h-1v-147.219h1c7.444 0 13.5-6.056 13.5-13.5v-22c0-7.444-6.056-13.5-13.5-13.5h-1v-163.781zm-31 0h15v163.781h-15zm-408 0h393v163.781h-52.26l7.764-6.78c4.74-3.97 5.259-11.654 1.098-16.227l-37.492-42.93-.002-.003-27.627-31.634c0-.001-.001-.001-.002-.002l-15.127-17.322c-2.021-2.314-4.821-3.702-7.887-3.91-3.059-.206-6.027.792-8.34 2.812l-10.025 8.755v-15.783c0-4.142-3.357-7.5-7.5-7.5h-108c-4.143 0-7.5 3.358-7.5 7.5v123.024h-22.847v-123.024c0-4.142-3.357-7.5-7.5-7.5h-36c-4.143 0-7.5 3.358-7.5 7.5v123.024h-46.253zm252.431 84.238-7.893-9.039 15.817-13.813 7.893 9.038zm25.684-2.515 10.966 12.557 6.794 7.78-15.817 13.813-8.819-10.098-8.942-10.239zm-32.049 18.03c0 .001 0 .001 0 0l27.628 31.636s.001.001.001.001l28.288 32.391h-58.883v-67.424zm43.859 27.418 15.817-13.814 30.259 34.648-15.818 13.813zm-82.825 3.149v-55.063h21v55.063zm21 15v17.937h-21v-17.937zm-21-85.063v-12h21v12zm-36 42v-27h21v27zm21 15v46h-21v-46zm-21-57v-12h21v12zm-36 42v-27h21v27zm21 15v46h-21v-46zm-21-57v-12h21v12zm-73.847 42v-27h21v27zm21 15v46h-21v-46zm-21-57v-12h21v12zm-76.253 299.743h-15v-147.219h15zm105.308 0h-21v-46h21zm0-61h-21v-27h21zm0-42h-21v-12h21zm36 103h-21v-46h21zm0-61h-21v-27h21zm0-42h-21v-12h21zm36 103h-21v-15.91h21zm0-30.91h-21v-57.09h21zm0-72.09h-21v-12h21zm36 103h-21v-46h21zm0-61h-21v-27h21zm0-42h-21v-12h21zm97.122 103h-21v-15.91h21zm0-30.91h-21v-57.09h21zm0-72.09h-21v-12h21zm36 103h-21v-46h21zm0-61h-21v-27h21zm0-42h-21v-12h21zm61.57 103h-46.57v-122.5c0-4.142-3.357-7.5-7.5-7.5h-72c-4.143 0-7.5 3.358-7.5 7.5v122.5h-46.122v-122.5c0-4.142-3.357-7.5-7.5-7.5h-144c-4.143 0-7.5 3.358-7.5 7.5v122.5h-54.308v-147.219h393zm30 0h-15v-147.219h15zm14.5-162.219h-6.971c-.019-.002-.039-.002-.058 0h-29.942c-.019-.002-.039-.002-.058 0h-407.942c-.019-.002-.039-.002-.058 0h-29.942c-.019-.002-.039-.002-.058 0h-6.971v-19h482z"/></g></svg>