<?xml version="1.0" encoding="iso-8859-1"?>
<!-- Generator: Adobe Illustrator 18.0.0, SVG Export Plug-In . SVG Version: 6.00 Build 0)  -->
<!DOCTYPE svg PUBLIC "-//W3C//DTD SVG 1.1//EN" "http://www.w3.org/Graphics/SVG/1.1/DTD/svg11.dtd">
<svg version="1.1" id="Capa_1" xmlns="http://www.w3.org/2000/svg" xmlns:xlink="http://www.w3.org/1999/xlink" x="0px" y="0px"
	 viewBox="0 0 397.244 397.244" style="enable-background:new 0 0 397.244 397.244;" xml:space="preserve">
<g>
	<polygon points="121.124,93.526 141.188,73.462 16.233,73.462 16.233,93.526 23.881,93.526 	"/>
	<polygon points="373.363,93.526 381.011,93.526 381.011,73.462 256.056,73.462 276.12,93.526 	"/>
	<path d="M382.912,319.94h-9.549V103.075H272.164l-60.328-60.328h-26.428l-60.328,60.328H23.881V319.94h-9.549H0v34.557h397.244
		V319.94H382.912z M74.722,295.001H47.984v-69.709h26.738V295.001z M74.722,199.51H47.984v-69.708h26.738V199.51z M188.436,307.097
		h-56.021v-121.91h56.021V307.097z M168.303,126.062c0-16.744,13.574-30.319,30.319-30.319c16.745,0,30.319,13.575,30.319,30.319
		c0,16.745-13.574,30.318-30.319,30.318C181.878,156.38,168.303,142.807,168.303,126.062z M264.829,307.097h-56.021v-121.91h56.021
		V307.097z M349.26,295.001h-26.738v-69.709h26.738V295.001z M349.26,199.51h-26.738v-69.708h26.738V199.51z"/>
</g>
<g>
</g>
<g>
</g>
<g>
</g>
<g>
</g>
<g>
</g>
<g>
</g>
<g>
</g>
<g>
</g>
<g>
</g>
<g>
</g>
<g>
</g>
<g>
</g>
<g>
</g>
<g>
</g>
<g>
</g>
</svg>
