<svg height="512pt" viewBox="0 0 512 512" width="512pt" xmlns="http://www.w3.org/2000/svg"><path d="m10 50h492v452h-492zm0 0" fill="#32beb4"/><path d="m10 10h154v40h-154zm0 0" fill="#8296aa"/><path d="m348 10h154v40h-154zm0 0" fill="#8296aa"/><path d="m164 10h184v60h-184zm0 0" fill="#9b4b14"/><path d="m10 164h60v184h-60zm0 0" fill="#e5e5e5"/><path d="m442 164h60v184h-60zm0 0" fill="#e5e5e5"/><path d="m10 124h60v40h-60zm0 0" fill="#8296aa"/><path d="m10 348h60v40h-60zm0 0" fill="#8296aa"/><path d="m442 226h-16.214844l-143.144531-143.140625-26.640625 26.640625-26.640625-26.640625-143.144531 143.140625h-16.214844v80h15.714844l133.425781 133.425781c-2.019531 3.800781-3.140625 7.980469-3.140625 12.371094v50.203125h80v-50.203125c0-4.390625-1.117188-8.570313-3.140625-12.371094l133.425781-133.425781h15.714844zm-186 193.714844-130.125-130.121094c3.847656-6.617188 6.125-14.769531 6.125-23.59375 0-8.683594-2.207031-16.714844-5.941406-23.273438l109.941406-109.941406v68.578125c-11.953125 6.917969-20 19.832031-20 34.636719 0 22.089844 17.910156 40 40 40s40-17.910156 40-40c0-14.804688-8.046875-27.71875-20-34.636719v-68.578125l109.941406 109.941406c-3.734375 6.558594-5.941406 14.589844-5.941406 23.273438 0 8.824219 2.277344 16.976562 6.125 23.59375zm0 0" fill="#fad79b"/><path d="m301.5 130h-91c-25.679688 0-46.5-20.820312-46.5-46.5v-13.5h184v13.5c0 25.679688-20.820312 46.5-46.5 46.5zm0 0" fill="#e5e5e5"/><path d="m502 0h-492c-5.523438 0-10 4.476562-10 10v492c0 5.523438 4.476562 10 10 10h492c5.523438 0 10-4.476562 10-10v-492c0-5.523438-4.476562-10-10-10zm-10 338h-40v-164h40zm-50-184c-5.523438 0-10 4.476562-10 10v52h-2.074219l-90.582031-90.585938c11.449219-10.347656 18.65625-25.304687 18.65625-41.914062v-23.5h134v94zm-67.960938 133.535156-118.039062 118.039063-118.039062-118.039063c2.65625-6.679687 4.039062-13.996094 4.039062-21.535156 0-7.394531-1.335938-14.589844-3.902344-21.171875l87.902344-87.902344v39.089844c-12.464844 9.375-20 24.207031-20 39.984375 0 27.570312 22.429688 50 50 50s50-22.429688 50-50c0-15.777344-7.535156-30.609375-20-39.984375v-39.089844l87.898438 87.902344c-2.5625 6.582031-3.898438 13.777344-3.898438 21.171875 0 7.539062 1.382812 14.855469 4.039062 21.535156zm-103.046874-77.515625c9.257812 5.359375 15.007812 15.3125 15.007812 25.980469 0 16.542969-13.457031 30-30 30s-30-13.457031-30-30c0-10.667969 5.75-20.621094 15.007812-25.980469 3.089844-1.785156 4.992188-5.085937 4.992188-8.652343v-61.367188h20v61.363281c0 3.570313 1.902344 6.871094 4.992188 8.65625zm-60.492188-90.019531c-20.125 0-36.5-16.375-36.5-36.5v-3.5h164v3.5c0 20.125-16.375 36.5-36.5 36.5zm-150.5 218h-40v-164h40zm0-184h-40v-20h40zm-40 204h40v20h-40zm60-234c0-5.523438-4.476562-10-10-10h-50v-54h134v23.5c0 16.609375 7.207031 31.566406 18.65625 41.914062l-90.582031 90.585938h-2.074219zm412-84h-134v-20h134zm-154 20h-164v-40h164zm-318-40h134v20h-134zm0 378h50c5.523438 0 10-4.476562 10-10v-72h1.574219l125.839843 125.839844c-.941406 3.230468-1.414062 6.5625-1.414062 9.957031v40.203125h-186zm206 94v-40.203125c0-2.636719.664062-5.21875 1.972656-7.675781 2.0625-3.882813 1.347656-8.65625-1.757812-11.765625l-133.429688-133.425781c-1.875-1.875-4.417968-2.929688-7.070312-2.929688h-5.714844v-60h6.214844c2.652344 0 5.195312-1.054688 7.070312-2.929688l96.875-96.875c6.316406 2.449219 13.171875 3.804688 20.339844 3.804688h4.140625l-95.65625 95.65625c-3.183594 3.183594-3.847656 8.105469-1.617187 12.019531 3.03125 5.320313 4.632812 11.65625 4.632812 18.324219 0 6.78125-1.648438 13.199219-4.769531 18.5625-2.28125 3.921875-1.632813 8.890625 1.574219 12.101562l130.125 130.121094c1.953124 1.953125 4.511718 2.929688 7.070312 2.929688s5.117188-.976563 7.070312-2.929688l130.125-130.121094c3.207032-3.210937 3.855469-8.179687 1.574219-12.101562-3.121093-5.363281-4.769531-11.78125-4.769531-18.5625 0-6.667969 1.601562-13.003906 4.632812-18.320312 2.230469-3.914063 1.566407-8.835938-1.617187-12.023438l-95.65625-95.65625h4.140625c7.167969 0 14.023438-1.355469 20.339844-3.800781l96.875 96.871093c1.875 1.875 4.417968 2.929688 7.070312 2.929688h6.214844v60h-5.714844c-2.652344 0-5.195312 1.054688-7.070312 2.929688l-133.425782 133.425781c-3.109374 3.109375-3.824218 7.882812-1.757812 11.765625 1.308594 2.457031 1.96875 5.039062 1.96875 7.675781v40.203125zm80 0v-40.203125c0-3.398437-.472656-6.726563-1.410156-9.957031l125.835937-125.839844h1.574219v32c0 5.523438 4.476562 10 10 10h50v134zm0 0"/><path d="m117.761719 385.101562c-2.671875 0-5.183594 1.039063-7.070313 2.929688-1.890625 1.878906-2.929687 4.398438-2.929687 7.070312 0 2.667969 1.039062 5.179688 2.929687 7.070313 1.886719 1.886719 4.398438 2.929687 7.070313 2.929687 2.679687 0 5.1875-1.042968 7.066406-2.929687 1.890625-1.890625 2.941406-4.402344 2.941406-7.070313 0-2.671874-1.050781-5.191406-2.941406-7.070312-1.878906-1.890625-4.386719-2.929688-7.066406-2.929688zm0 0"/><path d="m181.398438 444.601562-28.277344-28.292968c-1.890625-1.886719-4.402344-2.929688-7.070313-2.929688-2.671875 0-5.179687 1.042969-7.070312 2.929688-3.902344 3.902344-3.902344 10.242187 0 14.140625l28.28125 28.292969c1.886719 1.890624 4.398437 2.929687 7.066406 2.929687 2.683594 0 5.191406-1.039063 7.070313-2.929687 1.890624-1.890626 2.929687-4.402344 2.929687-7.070313 0-2.671875-1.039063-5.191406-2.929687-7.070313zm0 0"/><path d="m409.328125 377.671875c-2.667969 0-5.179687 1.039063-7.066406 2.929687l-28.28125 28.277344c-1.890625 1.890625-2.929688 4.402344-2.929688 7.070313 0 2.671875 1.039063 5.179687 2.929688 7.070312 1.878906 1.890625 4.398437 2.929688 7.070312 2.929688 2.667969 0 5.179688-1.039063 7.070313-2.929688l28.277344-28.28125c3.902343-3.898437 3.902343-10.25 0-14.140625-1.886719-1.886718-4.398438-2.925781-7.070313-2.925781zm0 0"/><path d="m352.761719 434.230469c-2.671875 0-5.183594 1.039062-7.070313 2.929687-1.890625 1.890625-2.929687 4.398438-2.929687 7.070313 0 2.679687 1.039062 5.1875 2.929687 7.078125 1.890625 1.878906 4.398438 2.921875 7.070313 2.921875 2.667969 0 5.179687-1.042969 7.066406-2.921875 1.890625-1.890625 2.933594-4.398438 2.933594-7.078125 0-2.671875-1.042969-5.179688-2.933594-7.070313-1.878906-1.890625-4.390625-2.929687-7.066406-2.929687zm0 0"/></svg>